# xmcd
#
# Track frame offsets:
#       150
#       15642
#       32175
#       46115
#       61160
#       78567
#       93987
#       112535
#       130437
#
# Disc length: 1950 seconds
#
# Revision: 0
# Processed by: cddbd v1.5.1PL0 Copyright (c) Steve Scherf et al.
# Submitted via: WhereIsIt 3.26
#
DISCID=65079c09
DTITLE=정원 - 청춘이여
DYEAR=1900
DGENRE=
TTITLE0=청춘이여
TTITLE1=허무한 마음
TTITLE2=미워하지 않으리
TTITLE3=무작정 걷고 싶어
TTITLE4=내 청춘
TTITLE5=아담과 이브
TTITLE6=내 삶을 눈물로 채워도
TTITLE7=소문
TTITLE8=청춘이여(반주음악)
EXTD=
EXTT0=
EXTT1=
EXTT2=
EXTT3=
EXTT4=
EXTT5=
EXTT6=
EXTT7=
EXTT8=
PLAYORDER=
